<svg xmlns="http://www.w3.org/2000/svg" xmlns:xlink="http://www.w3.org/1999/xlink" width="40" zoomAndPan="magnify" viewBox="0 0 30 30.000001" height="40" preserveAspectRatio="xMidYMid meet" version="1.0"><defs><clipPath id="c0d9e79a0c"><path d="M 0.484375 6 L 29.476562 6 L 29.476562 23 L 0.484375 23 Z M 0.484375 6 " clip-rule="nonzero"/></clipPath></defs><g clip-path="url(#c0d9e79a0c)"><path fill="#000000" d="M 8.648438 6.273438 C 4.136719 6.273438 0.480469 9.960938 0.480469 14.515625 C 0.480469 19.070312 4.136719 22.757812 8.648438 22.757812 C 13.160156 22.757812 16.816406 19.070312 16.816406 14.515625 C 16.816406 9.960938 13.160156 6.273438 8.648438 6.273438 Z M 21.695312 6.753906 C 19.441406 6.753906 17.613281 10.230469 17.613281 14.515625 C 17.613281 18.804688 19.441406 22.277344 21.699219 22.277344 C 23.957031 22.277344 25.785156 18.804688 25.785156 14.515625 L 25.777344 14.515625 C 25.777344 10.230469 23.949219 6.753906 21.695312 6.753906 Z M 28.007812 7.5625 C 27.21875 7.5625 26.574219 10.675781 26.574219 14.515625 C 26.574219 18.359375 27.21875 21.46875 28.007812 21.46875 C 28.800781 21.46875 29.445312 18.355469 29.445312 14.515625 C 29.445312 10.679688 28.800781 7.5625 28.007812 7.5625 Z M 28.007812 7.5625 " fill-opacity="1" fill-rule="nonzero"/></g></svg>